<?xml version="1.0" standalone="no"?>
<!DOCTYPE svg PUBLIC "-//W3C//DTD SVG 20010904//EN"
 "http://www.w3.org/TR/2001/REC-SVG-20010904/DTD/svg10.dtd">
<svg version="1.0" xmlns="http://www.w3.org/2000/svg"
 width="700.000000pt" height="700.000000pt" viewBox="0 0 700.000000 700.000000"
 preserveAspectRatio="xMidYMid meet">
<metadata>
Created by potrace 1.14, written by Peter Selinger 2001-2017
</metadata>
<g transform="translate(0.000000,700.000000) scale(0.100000,-0.100000)"
fill="#000000" stroke="none">
<path d="M3702 6719 c-23 -12 -91 -68 -150 -126 -202 -196 -233 -199 -442 -38
-124 96 -143 108 -193 124 -84 28 -140 -18 -237 -195 -100 -182 -150 -228
-240 -219 -46 5 -132 32 -203 64 -150 69 -247 73 -294 13 -29 -37 -72 -176
-97 -319 -3 -14 -17 -50 -31 -80 -20 -39 -37 -59 -65 -73 -40 -21 -39 -20
-340 -5 -118 5 -156 -6 -194 -58 -19 -25 -21 -42 -20 -150 0 -67 2 -156 3
-197 4 -106 -11 -154 -59 -189 -35 -25 -112 -50 -200 -65 -154 -26 -238 -58
-266 -102 -35 -53 -26 -105 56 -339 34 -99 42 -155 28 -197 -15 -44 -86 -98
-214 -163 -64 -33 -138 -79 -163 -101 -44 -40 -46 -44 -45 -95 1 -63 17 -93
121 -237 91 -124 117 -181 108 -230 -9 -51 -33 -81 -162 -211 -121 -121 -152
-166 -147 -219 5 -59 44 -103 187 -210 156 -116 191 -172 167 -261 -11 -42
-19 -57 -90 -181 -84 -147 -100 -203 -76 -261 20 -48 72 -80 221 -138 276
-108 285 -129 204 -450 -22 -85 -24 -175 -6 -211 15 -29 78 -66 127 -74 19 -3
73 -8 120 -11 286 -19 323 -51 336 -284 11 -202 20 -252 55 -290 47 -50 106
-52 299 -12 146 30 214 31 261 4 36 -22 80 -104 123 -232 63 -187 114 -247
201 -236 22 3 105 38 185 79 80 41 165 79 188 85 89 24 146 -14 260 -174 175
-246 221 -252 430 -48 129 126 175 155 234 152 54 -3 80 -17 225 -126 138
-103 152 -111 196 -118 75 -12 127 35 218 201 98 178 145 223 229 219 45 -2
60 -7 214 -67 269 -104 301 -83 380 255 47 203 89 237 280 221 55 -4 145 -8
198 -9 109 0 138 13 171 76 15 30 17 53 11 179 -8 206 -6 242 11 282 25 62
104 101 250 123 78 11 166 35 205 55 55 28 75 62 73 124 -1 50 -11 85 -73 260
-70 196 -46 243 187 361 80 41 133 75 167 108 46 46 48 51 44 91 -7 58 -32
108 -107 206 -72 95 -131 200 -131 233 1 52 43 114 143 212 129 126 154 156
167 205 20 73 -16 121 -175 242 -167 125 -200 176 -175 267 11 43 19 59 104
206 52 89 79 169 72 209 -12 69 -60 101 -271 181 -174 66 -208 101 -207 210 1
33 15 114 31 180 68 265 30 324 -219 339 -299 20 -332 48 -345 286 -11 201
-22 254 -61 293 -14 15 -42 29 -61 33 -34 6 -134 0 -163 -10 -8 -3 -26 -8 -40
-10 -14 -3 -57 -11 -96 -19 -83 -17 -155 -13 -193 9 -40 24 -64 68 -119 217
-61 167 -90 219 -136 241 -53 25 -95 13 -271 -74 -88 -44 -177 -82 -198 -85
-76 -10 -131 33 -243 190 -76 109 -113 149 -153 169 -40 21 -68 20 -119 -5z
m93 -532 c12 -3 48 -8 80 -12 67 -8 60 -7 170 -30 849 -174 1566 -751 1921
-1545 214 -480 279 -978 199 -1540 -20 -146 -93 -402 -161 -570 -165 -409
-424 -766 -770 -1060 -277 -236 -642 -428 -999 -528 -60 -17 -121 -33 -135
-36 -14 -2 -47 -9 -75 -16 -27 -6 -70 -13 -94 -16 -24 -2 -47 -6 -50 -9 -18
-10 -194 -20 -381 -20 -247 0 -353 10 -545 50 -44 9 -88 18 -97 20 -112 22
-350 107 -507 181 -769 364 -1326 1069 -1494 1894 -14 69 -29 150 -33 180 -3
30 -9 64 -11 75 -3 11 -6 126 -8 255 -3 243 10 393 50 585 138 665 515 1246
1067 1646 377 274 847 452 1303 495 39 4 72 8 74 10 6 5 473 -3 496 -9z"/>
<path d="M3298 6055 c-1 -1 -33 -6 -70 -9 -37 -4 -77 -9 -90 -11 -13 -2 -39
-6 -58 -9 -245 -37 -521 -129 -757 -252 -748 -390 -1251 -1108 -1362 -1944
-15 -116 -19 -191 -16 -370 2 -124 6 -236 8 -250 3 -14 11 -61 17 -105 28
-193 98 -441 167 -595 155 -344 308 -573 542 -809 392 -395 874 -642 1431
-733 196 -32 574 -32 775 0 112 18 275 54 340 76 6 1 24 7 40 11 64 17 242 88
340 135 619 296 1098 835 1320 1485 41 119 85 298 101 405 3 19 7 42 9 50 26
100 26 564 1 730 -31 204 -105 476 -167 615 -96 216 -141 299 -242 450 -392
583 -1019 989 -1697 1099 -52 8 -111 18 -130 21 -36 7 -495 16 -502 10z m27
-599 c56 -9 120 -42 150 -78 l26 -30 34 36 c54 57 115 81 210 81 81 -1 127
-12 255 -62 78 -31 227 -63 292 -63 44 0 48 -2 54 -27 3 -16 8 -35 11 -43 3
-8 13 -46 23 -85 10 -38 27 -104 39 -145 11 -41 32 -120 46 -175 14 -55 28
-107 31 -116 3 -13 -4 -15 -43 -14 -96 4 -161 19 -326 71 -189 61 -283 79
-374 71 -83 -8 -141 -35 -188 -89 l-39 -45 -43 47 c-59 65 -123 92 -240 98
-105 5 -145 -3 -326 -64 -133 -45 -249 -71 -304 -68 -66 3 -65 2 -59 32 3 15
8 47 11 72 3 25 8 52 10 60 2 8 7 35 10 60 3 25 15 97 25 160 11 63 22 133 26
155 3 22 9 43 12 47 4 3 34 8 67 9 81 3 202 31 305 69 117 43 198 53 305 36z
m-404 -929 c30 -22 87 -100 264 -362 93 -137 181 -268 196 -290 61 -90 121
-130 169 -113 44 15 80 60 274 351 241 361 253 377 304 409 37 23 98 26 134 7
31 -16 38 -28 38 -65 0 -37 -56 -129 -355 -580 -241 -363 -264 -403 -292 -515
-3 -13 -6 -251 -7 -529 -1 -380 -5 -511 -14 -527 -37 -67 -166 -71 -209 -7
-16 25 -18 66 -19 518 0 270 -4 510 -8 532 -11 69 -50 154 -113 249 -33 50
-107 164 -165 255 -58 91 -145 226 -193 300 -136 207 -185 291 -185 315 0 59
121 93 181 52z m707 -166 c41 -29 66 -97 58 -153 -16 -99 -123 -155 -220 -114
-105 44 -120 199 -25 267 59 42 129 42 187 0z m1626 -408 c77 -38 99 -94 94
-243 l-3 -104 -65 -12 c-36 -7 -76 -13 -90 -13 l-25 -1 0 113 c1 61 -1 117 -3
123 -2 8 -118 11 -391 11 l-388 -1 0 -413 0 -413 394 1 393 2 0 145 c0 111 3
143 13 139 6 -2 47 -13 90 -23 l78 -18 -3 -147 c-3 -132 -5 -151 -24 -176 -43
-58 -61 -60 -558 -58 l-452 0 -33 24 c-18 13 -43 45 -54 70 -19 43 -20 66 -20
456 0 303 3 420 12 448 15 45 54 84 96 96 17 5 227 10 469 10 380 0 443 -2
470 -16z m-2509 -11 c45 -13 98 -62 114 -105 16 -41 14 -177 -1 -178 -36 -4
-58 -7 -101 -13 l-47 -7 -1 68 c-1 37 -2 76 -2 86 0 16 -26 17 -413 17 l-414
0 0 -47 c-1 -83 -1 -737 0 -758 0 -20 5 -20 398 -18 218 2 406 3 417 3 20 0
21 6 20 173 l0 172 -190 2 c-105 1 -201 2 -215 2 -24 1 -25 3 -25 64 l0 62
293 3 292 2 0 -250 c0 -283 -4 -302 -66 -341 l-39 -24 -475 -3 -476 -3 -34 23
c-19 13 -45 43 -57 66 -21 43 -22 53 -23 453 0 253 3 424 10 448 13 50 52 88
106 104 58 17 870 16 929 -1z m1503 -2064 l3 -48 40 0 40 0 -3 -37 c-3 -39 -2
-38 -60 -42 -15 -1 -18 -11 -18 -71 l0 -71 35 3 c40 2 41 2 49 -39 7 -29 5
-32 -26 -38 -122 -28 -149 -3 -150 138 0 69 -2 77 -19 77 -15 0 -19 7 -19 40
0 34 3 40 20 40 12 0 20 6 19 13 -1 6 -1 29 0 50 l1 38 43 -3 42 -3 3 -47z
m-1310 -50 c5 -7 24 -42 43 -77 l33 -64 24 71 24 72 39 0 c21 0 39 -4 39 -8 0
-6 -78 -244 -95 -289 -9 -25 -31 -1 -75 82 -25 47 -47 85 -50 85 -3 0 -22 -33
-42 -73 -45 -87 -64 -114 -73 -105 -4 3 -26 64 -50 135 -65 195 -64 175 -14
171 l43 -3 20 -62 c20 -65 31 -76 44 -45 20 47 63 122 71 122 5 0 13 -6 19
-12z m554 3 c54 -21 88 -69 88 -125 0 -40 7 -38 -127 -38 -40 0 -75 -4 -79 -9
-7 -12 45 -59 66 -59 9 0 32 5 50 12 30 10 35 9 52 -12 18 -23 18 -24 1 -42
-38 -38 -128 -44 -181 -13 -71 42 -97 144 -56 214 36 62 123 96 186 72z m423
-5 c40 -17 41 -22 19 -54 -11 -16 -22 -21 -33 -17 -29 12 -69 16 -74 7 -9 -13
5 -26 50 -46 77 -34 104 -84 76 -139 -26 -51 -115 -68 -186 -36 -30 13 -33 26
-14 52 10 15 20 16 59 9 26 -5 50 -7 53 -4 14 15 0 32 -42 53 -71 34 -89 58
-83 114 6 62 96 93 175 61z"/>
<path d="M3102 5385 c-34 -8 -97 -28 -140 -45 -84 -34 -178 -57 -229 -55 -23
1 -33 -4 -34 -15 0 -8 -2 -22 -3 -30 -2 -8 -6 -44 -10 -80 -3 -36 -10 -101
-16 -145 -5 -44 -12 -101 -15 -126 l-5 -46 53 4 c74 4 164 26 302 73 157 54
252 62 345 30 65 -22 115 -50 138 -79 11 -13 12 6 7 109 -3 69 -8 169 -10 223
-3 54 -10 107 -15 117 -6 11 -37 32 -70 48 -50 24 -73 28 -147 29 -48 1 -116
-5 -151 -12z"/>
<path d="M3662 5385 c-30 -7 -73 -26 -95 -42 l-42 -29 3 -110 c2 -60 5 -154 7
-209 2 -55 4 -108 4 -118 1 -15 7 -13 40 14 60 48 131 68 231 65 72 -2 107
-10 225 -51 171 -58 191 -63 283 -71 48 -5 72 -3 72 4 0 6 -14 68 -31 139 -17
70 -32 133 -34 138 -1 6 -7 37 -14 71 -19 90 -13 85 -114 98 -47 7 -107 25
-264 80 -86 31 -196 39 -271 21z"/>
<path d="M3397 1752 c-26 -28 -21 -32 38 -32 42 0 55 4 55 15 0 34 -67 46 -93
17z"/>
</g>
</svg>
