<svg xmlns="http://www.w3.org/2000/svg" id="svg36" width="500" height="500" version="1.1"><defs id="defs4"><style id="style2">.cls-2,.cls-4{fill:#fff}.cls-4,.cls-5{stroke:#fff;stroke-miterlimit:10}</style></defs><g id="Layer_11" data-name="Layer 11" transform="translate(-145.557 -42.647)"><text id="text6" style="font-size:19.35000038px;font-family:BrandonGrotesque-Regular,&quot;Brandon Grotesque&quot;;letter-spacing:.1em;fill:#fff" transform="translate(555.45 349.88)">west</text></g><g id="Layer_8" data-name="Layer 8" transform="translate(-127.475 -61.21)"><path id="path9" d="M596.14 233.09c3.59 10.06-14.84 26.15-12.76 36.33 2.13 10.43 25.36 18 26 28.43.61 10.59-21.61 20.83-22.5 31.25s19.22 24.41 16.84 34.62-26.6 13.83-30.41 23.63 11.61 28.79 6.43 38-29.37 5.78-35.81 14.15 3.09 30.86-4.48 38.24-29.77-2.77-38.35 3.47-5.73 30.44-15.14 35.4c-9.19 4.84-27.71-11.12-37.77-7.52s-14.28 27.67-24.46 29.75C413.27 540.93 400 520.4 389.55 521c-10.59.61-21.44 22.52-31.86 21.62S340.2 518.27 330 515.89s-26.88 15.56-36.67 11.75-9.91-28.28-19.08-33.45-30.13 7.43-38.49 1-1.54-29.88-8.92-37.45-31-1.33-37.2-9.92c-6.13-8.43 7-29 2.06-38.45-4.84-9.19-29.29-9.95-32.88-20s14.83-26.15 12.75-36.33c-2.13-10.42-25.36-18-26-28.43-.62-10.59 21.6-20.82 22.5-31.25s-19.22-24.41-16.84-34.62 26.59-13.83 30.4-23.62-11.6-28.79-6.43-38 29.41-5.78 35.8-14.12-3.09-30.86 4.49-38.24 29.76 2.77 38.35-3.46c8.43-6.13 5.72-30.44 15.14-35.4 9.19-4.84 27.7 11.11 37.77 7.51s14.28-27.67 24.45-29.75c10.47-2.16 23.8 18.34 34.19 17.76 10.59-.61 21.44-22.51 31.86-21.62s17.49 24.36 27.71 26.74S451.83 91 461.63 94.8s9.9 28.27 19.07 33.44 30.13-7.42 38.5-1 1.53 29.88 8.91 37.46 31 1.33 37.21 9.91c6.12 8.43-7 29-2.07 38.45 4.84 9.2 29.29 9.94 32.89 20.03"/><path id="path11" d="M320.47 431.54c-.32-.71.16-1.25.92-1.25h3.89a1.13 1.13 0 0 1 1 .65l3.24 9.67h.05l5.51-10.37a.93.93 0 0 1 .87-.49h.43a.9.9 0 0 1 .86.49l5.46 10.37h.05l3.24-9.67c.22-.59.65-.65 1.24-.65h3.51c.76 0 1.24.54 1 1.25l-6.75 20.3a.94.94 0 0 1-1 .59h-.21a1 1 0 0 1-.87-.48l-6.8-12.58H336L329.27 452a.94.94 0 0 1-.86.48h-.27a.92.92 0 0 1-.92-.59z" class="cls-2" style="fill:#fff"/><path id="path13" d="M373.28 429.75a9.91 9.91 0 0 1 10.1 10.05 12 12 0 0 1-.11 1.46 1 1 0 0 1-1 .91h-13.85a5.16 5.16 0 0 0 5.19 4.7 7.5 7.5 0 0 0 4.21-1.35c.54-.32 1-.43 1.4 0l2.22 2.54a.88.88 0 0 1-.06 1.4 11.58 11.58 0 0 1-8 3 11.34 11.34 0 0 1-.06-22.68zm3.78 8.64a4 4 0 0 0-3.94-3.67 4.25 4.25 0 0 0-4.21 3.67z" class="cls-2" style="fill:#fff"/><path id="path15" d="m394.61 449.3 1.46-2.91a.82.82 0 0 1 1.24-.38 12.1 12.1 0 0 0 4.92 1.29c1.08 0 1.83-.43 1.83-1.35s-.75-1.56-3.61-2.7c-4.16-1.62-6.11-3.83-6.11-7.12s2.43-6.38 7.94-6.38a12.35 12.35 0 0 1 6.64 1.68 1.15 1.15 0 0 1 .49 1.46l-1.35 2.75a1 1 0 0 1-1.3.38 12.7 12.7 0 0 0-4.48-1.14c-1.29 0-1.83.54-1.83 1.25 0 1 1 1.29 3 2.1 4.15 1.62 7.29 3.4 7.29 7.62 0 3.56-3.14 6.58-8.59 6.58a12.26 12.26 0 0 1-7.18-2 .94.94 0 0 1-.36-1.13" class="cls-2" style="fill:#fff"/><path id="path17" d="M424.48 436h-1.84a1 1 0 0 1-1-1v-3.62a1 1 0 0 1 1-1h1.84v-6a1.06 1.06 0 0 1 1-1h4.43a1 1 0 0 1 1 1v6h4.75a1 1 0 0 1 1 1V435a1 1 0 0 1-1 1h-4.76v8.64c0 1.52.81 1.73 1.68 1.73a8.8 8.8 0 0 0 2.64-.59.83.83 0 0 1 1.19.59l1.08 3.4a1 1 0 0 1-.59 1.3 20.4 20.4 0 0 1-6.43 1.4c-4.16 0-6-2.59-6-7z" class="cls-2" style="fill:#fff"/><circle id="circle19" cx="377.47" cy="311.22" r="187.93" style="fill:none;stroke:#fff;stroke-width:10px;stroke-miterlimit:10"/><circle id="circle21" cx="379.83" cy="258.66" r="11.28" class="cls-4" style="fill:#fff;stroke:#fff;stroke-miterlimit:10"/><path id="path23" d="m496.52 305.91 13.05-2.28v-14.09s0-12-13.05-12H442.8c-10.29 0-14.87 3.91-14.87 13.62 0 10.57.06 46.88 0 50.92-.09 9.26 4.3 14.87 12 14.61 10.56-.35 51.43.17 54.91 0 3.37 0 14.71.75 14.7-10.18v-17.18l-12.84-3.11.2 20.52-56.36.2v-59.06h55.74z" class="cls-4" style="fill:#fff;stroke:#fff;stroke-miterlimit:10"/><path id="path25" d="M326 248c-1.36-2.38-4.49-6.51-1.69-9.26s9.05-3 12.1-.73c3.44 2.58 11.18 14.89 11.18 14.89l14.67 21.66 8.57 12.51s4.37 6.12 9 6c2.64-.07 6.12-4.15 7.24-5.55.22-.27.42-.55.62-.84l11.23-16.72 12.13-18.24s2.42-3.64 5.55-7.79c4.32-5.74 7.15-8.2 13.26-6.94 9.72 2 2.05 12.07 2.05 12.07l-15.36 23.84s-12.38 18.82-18.21 27.17-10.16 16.36-10.44 26.57c-.33 11.79-.14 34.55-.14 34.55l.14 29.81s1.05 8.9-8.82 8.9c-6.36 0-8.52-4.06-8.46-9.11.08-6.85 0-64.16 0-64.16s-.13-10.28-5.76-18.51-20.29-31.48-20.29-31.48S327 249.64 326 248z" class="cls-4" style="fill:#fff;stroke:#fff;stroke-miterlimit:10"/><path id="path27" d="m309.53 221.34 6.85-42.15a63.2 63.2 0 0 0 26.54-5.09c12.45-5.22 29.18-4.63 34.66 5.48 0 0 8-16 32.89-5.36a70 70 0 0 0 27 5.76l11.38 42.89s-9.45 1.36-24.23-4.13c-16.14-6-37.32-11.81-45.25 4.35a20.65 20.65 0 0 0-14.8-10.62c-21.78-4.14-33.51 11.15-55.04 8.87z" class="cls-4" style="fill:#fff;stroke:#fff;stroke-miterlimit:10"/><path id="path29" d="m376 181.87 1.49 32.32s-9-11.31-27.34-7c-8.59 2-19.6 8.35-33.31 7.92l3.5-31.35a40.3 40.3 0 0 0 17.79-3.5c8.47-4.06 28.96-9.19 37.87 1.61z" class="cls-5" style="stroke:#fff;stroke-miterlimit:10"/><path id="path31" d="m379.17 181.74 1.12 32.66s8.45-11.52 28.27-6c13.08 3.65 17.21 7.93 32.66 7.73l-7.29-31.49a66.8 66.8 0 0 1-22.31-5.54c-11.62-5.26-24.96-4.65-32.45 2.64z" class="cls-5" style="stroke:#fff;stroke-miterlimit:10"/><path id="path33" d="m321 301.18 11.47-1.37V289.4s-1.8-10.77-14.85-10.77h-53.78c-10.28 0-14.86 3.91-14.86 13.62 0 10.57.06 46.88 0 50.92-.09 9.26 4.3 14.87 12 14.61 10.56-.35 51.43.17 54.91 0 3.37 0 16.53.58 16.51-10.35v-34h-41.7v9.35l30.74.13v24.86l-59.79.22V289h59.11z" class="cls-4" style="fill:#fff;stroke:#fff;stroke-miterlimit:10"/></g></svg>